<?xml version="1.0" standalone="no"?>
<!DOCTYPE svg PUBLIC "-//W3C//DTD SVG 20010904//EN"
 "http://www.w3.org/TR/2001/REC-SVG-20010904/DTD/svg10.dtd">
<svg version="1.0" xmlns="http://www.w3.org/2000/svg"
 width="320.000000pt" height="320.000000pt" viewBox="0 0 320.000000 320.000000"
 preserveAspectRatio="xMidYMid meet">

<g transform="translate(0.000000,320.000000) scale(0.100000,-0.100000)"
fill="#000000" stroke="none">
<path d="M0 1600 l0 -1600 490 0 489 0 3 152 3 152 55 -3 c30 -1 57 -4 58 -6
2 -2 3 -69 3 -149 l-1 -146 421 0 421 0 -4 70 c-2 39 -1 70 2 70 3 1 31 2 63
3 l57 2 0 -72 0 -73 570 0 570 0 0 1600 0 1600 -1600 0 -1600 0 0 -1600z
m2405 235 l0 -560 -160 -5 -160 -5 4 -140 c3 -115 1 -143 -11 -153 -12 -9
-125 -12 -489 -10 l-474 3 -3 464 c-1 329 1 468 9 477 8 10 51 14 163 16 l151
3 3 225 c1 124 4 231 7 238 3 10 105 12 482 10 l478 -3 0 -560z m-1145 -1414
c0 -27 3 -56 6 -65 5 -14 -4 -16 -66 -16 -62 0 -71 2 -66 16 3 9 6 35 6 59 l0
44 53 4 c28 2 55 4 60 5 4 1 7 -20 7 -47z m802 -6 c6 -73 4 -75 -67 -75 l-62
0 4 53 c6 74 5 72 66 72 l55 0 4 -50z m159 -118 c-1 -4 -1 -32 -1 -62 l0 -55
-60 0 -60 0 0 59 0 60 53 4 c63 4 69 3 68 -6z"/>
</g>
</svg>
